<svg xmlns="http://www.w3.org/2000/svg" xmlns:xlink="http://www.w3.org/1999/xlink" width="2749pt" height="332pt" viewBox="0.00 0.00 2748.51 332.00">
<g id="graph0" class="graph" transform="scale(1 1) rotate(0) translate(4 328)">
<title>TournamentTree</title>
<polygon fill="white" stroke="none" points="-4,4 -4,-328 2744.51,-328 2744.51,4 -4,4"/>
<!-- node0 -->
<g id="node1" class="node">
<title>node0</title>
<ellipse fill="none" stroke="black" cx="1532.82" cy="-306" rx="88.82" ry="18"/>
<text text-anchor="middle" x="1532.82" y="-301.8" font-family="Times,serif" font-size="14.00">Sulley (Power: 120)</text>
</g>
<!-- node1 -->
<g id="node2" class="node">
<title>node1</title>
<ellipse fill="none" stroke="black" cx="1136.82" cy="-234" rx="88.82" ry="18"/>
<text text-anchor="middle" x="1136.82" y="-229.8" font-family="Times,serif" font-size="14.00">Sulley (Power: 120)</text>
</g>
<!-- node0&#45;&gt;node1 -->
<g id="edge15" class="edge">
<title>node0-&gt;node1</title>
<path fill="none" stroke="black" d="M1467.43,-293.44C1397.64,-281.1 1287.17,-261.58 1213.37,-248.53"/>
<polygon fill="black" stroke="black" points="1214.26,-245.13 1203.8,-246.84 1213.04,-252.03 1214.26,-245.13"/>
</g>
<!-- node16 -->
<g id="node17" class="node">
<title>node16</title>
<ellipse fill="none" stroke="black" cx="1909.82" cy="-234" rx="84.52" ry="18"/>
<text text-anchor="middle" x="1909.82" y="-229.8" font-family="Times,serif" font-size="14.00">Mike (Power: 115)</text>
</g>
<!-- node0&#45;&gt;node16 -->
<g id="edge28" class="edge">
<title>node0-&gt;node16</title>
<path fill="none" stroke="black" d="M1596.77,-293.13C1663.14,-280.8 1766.79,-261.56 1836.44,-248.62"/>
<polygon fill="black" stroke="black" points="1837.07,-252.07 1846.26,-246.8 1835.79,-245.19 1837.07,-252.07"/>
</g>
<!-- node2 -->
<g id="node3" class="node">
<title>node2</title>
<ellipse fill="none" stroke="black" cx="570.82" cy="-162" rx="88.82" ry="18"/>
<text text-anchor="middle" x="570.82" y="-157.8" font-family="Times,serif" font-size="14.00">Sulley (Power: 120)</text>
</g>
<!-- node1&#45;&gt;node2 -->
<g id="edge7" class="edge">
<title>node1-&gt;node2</title>
<path fill="none" stroke="black" d="M1062.53,-223.81C957.71,-210.85 766.88,-187.25 656.3,-173.57"/>
<polygon fill="black" stroke="black" points="657.05,-170.14 646.7,-172.38 656.19,-177.09 657.05,-170.14"/>
</g>
<!-- node9 -->
<g id="node10" class="node">
<title>node9</title>
<ellipse fill="none" stroke="black" cx="1136.82" cy="-162" rx="92.04" ry="18"/>
<text text-anchor="middle" x="1136.82" y="-157.8" font-family="Times,serif" font-size="14.00">Johnny (Power: 110)</text>
</g>
<!-- node1&#45;&gt;node9 -->
<g id="edge14" class="edge">
<title>node1-&gt;node9</title>
<path fill="none" stroke="black" d="M1136.82,-215.7C1136.82,-208.41 1136.82,-199.73 1136.82,-191.54"/>
<polygon fill="black" stroke="black" points="1140.32,-191.62 1136.82,-181.62 1133.32,-191.62 1140.32,-191.62"/>
</g>
<!-- node3 -->
<g id="node4" class="node">
<title>node3</title>
<ellipse fill="none" stroke="black" cx="279.82" cy="-90" rx="88.82" ry="18"/>
<text text-anchor="middle" x="279.82" y="-85.8" font-family="Times,serif" font-size="14.00">Sulley (Power: 120)</text>
</g>
<!-- node2&#45;&gt;node3 -->
<g id="edge3" class="edge">
<title>node2-&gt;node3</title>
<path fill="none" stroke="black" d="M515.06,-147.59C466.93,-136.01 397.32,-119.26 346.31,-106.99"/>
<polygon fill="black" stroke="black" points="347.41,-103.66 336.87,-104.72 345.77,-110.46 347.41,-103.66"/>
</g>
<!-- node6 -->
<g id="node7" class="node">
<title>node6</title>
<ellipse fill="none" stroke="black" cx="570.82" cy="-90" rx="94.18" ry="18"/>
<text text-anchor="middle" x="570.82" y="-85.8" font-family="Times,serif" font-size="14.00">Randall (Power: 100)</text>
</g>
<!-- node2&#45;&gt;node6 -->
<g id="edge6" class="edge">
<title>node2-&gt;node6</title>
<path fill="none" stroke="black" d="M570.82,-143.7C570.82,-136.41 570.82,-127.73 570.82,-119.54"/>
<polygon fill="black" stroke="black" points="574.32,-119.62 570.82,-109.62 567.32,-119.62 574.32,-119.62"/>
</g>
<!-- node4 -->
<g id="node5" class="node">
<title>node4</title>
<ellipse fill="none" stroke="black" cx="88.82" cy="-18" rx="88.82" ry="18"/>
<text text-anchor="middle" x="88.82" y="-13.8" font-family="Times,serif" font-size="14.00">Sulley (Power: 120)</text>
</g>
<!-- node3&#45;&gt;node4 -->
<g id="edge1" class="edge">
<title>node3-&gt;node4</title>
<path fill="none" stroke="black" d="M238.38,-73.81C209.82,-63.34 171.64,-49.35 141.01,-38.13"/>
<polygon fill="black" stroke="black" points="142.53,-34.96 131.93,-34.8 140.12,-41.53 142.53,-34.96"/>
</g>
<!-- node5 -->
<g id="node6" class="node">
<title>node5</title>
<ellipse fill="none" stroke="black" cx="279.82" cy="-18" rx="84.52" ry="18"/>
<text text-anchor="middle" x="279.82" y="-13.8" font-family="Times,serif" font-size="14.00">Mike (Power: 115)</text>
</g>
<!-- node3&#45;&gt;node5 -->
<g id="edge2" class="edge">
<title>node3-&gt;node5</title>
<path fill="none" stroke="black" d="M279.82,-71.7C279.82,-64.41 279.82,-55.73 279.82,-47.54"/>
<polygon fill="black" stroke="black" points="283.32,-47.62 279.82,-37.62 276.32,-47.62 283.32,-47.62"/>
</g>
<!-- node7 -->
<g id="node8" class="node">
<title>node7</title>
<ellipse fill="none" stroke="black" cx="476.82" cy="-18" rx="94.18" ry="18"/>
<text text-anchor="middle" x="476.82" y="-13.8" font-family="Times,serif" font-size="14.00">Randall (Power: 100)</text>
</g>
<!-- node6&#45;&gt;node7 -->
<g id="edge4" class="edge">
<title>node6-&gt;node7</title>
<path fill="none" stroke="black" d="M548.07,-72.05C536.17,-63.2 521.43,-52.22 508.44,-42.55"/>
<polygon fill="black" stroke="black" points="510.69,-39.86 500.58,-36.69 506.51,-45.47 510.69,-39.86"/>
</g>
<!-- node8 -->
<g id="node9" class="node">
<title>node8</title>
<ellipse fill="none" stroke="black" cx="660.82" cy="-18" rx="72.18" ry="18"/>
<text text-anchor="middle" x="660.82" y="-13.8" font-family="Times,serif" font-size="14.00">Art (Power: 80)</text>
</g>
<!-- node6&#45;&gt;node8 -->
<g id="edge5" class="edge">
<title>node6-&gt;node8</title>
<path fill="none" stroke="black" d="M592.61,-72.05C604.08,-63.13 618.32,-52.06 630.82,-42.34"/>
<polygon fill="black" stroke="black" points="632.61,-45.38 638.35,-36.48 628.31,-39.85 632.61,-45.38"/>
</g>
<!-- node10 -->
<g id="node11" class="node">
<title>node10</title>
<ellipse fill="none" stroke="black" cx="1023.82" cy="-90" rx="92.04" ry="18"/>
<text text-anchor="middle" x="1023.82" y="-85.8" font-family="Times,serif" font-size="14.00">Johnny (Power: 110)</text>
</g>
<!-- node9&#45;&gt;node10 -->
<g id="edge10" class="edge">
<title>node9-&gt;node10</title>
<path fill="none" stroke="black" d="M1110.04,-144.41C1095.12,-135.17 1076.34,-123.54 1060.12,-113.49"/>
<polygon fill="black" stroke="black" points="1062.04,-110.56 1051.69,-108.27 1058.35,-116.51 1062.04,-110.56"/>
</g>
<!-- node13 -->
<g id="node14" class="node">
<title>node13</title>
<ellipse fill="none" stroke="black" cx="1250.82" cy="-90" rx="116.69" ry="18"/>
<text text-anchor="middle" x="1250.82" y="-85.8" font-family="Times,serif" font-size="14.00">TerryAndTerri (Power: 85)</text>
</g>
<!-- node9&#45;&gt;node13 -->
<g id="edge13" class="edge">
<title>node9-&gt;node13</title>
<path fill="none" stroke="black" d="M1163.84,-144.41C1178.67,-135.3 1197.28,-123.87 1213.49,-113.92"/>
<polygon fill="black" stroke="black" points="1215.23,-116.96 1221.92,-108.75 1211.56,-111 1215.23,-116.96"/>
</g>
<!-- node11 -->
<g id="node12" class="node">
<title>node11</title>
<ellipse fill="none" stroke="black" cx="842.82" cy="-18" rx="92.04" ry="18"/>
<text text-anchor="middle" x="842.82" y="-13.8" font-family="Times,serif" font-size="14.00">Johnny (Power: 110)</text>
</g>
<!-- node10&#45;&gt;node11 -->
<g id="edge8" class="edge">
<title>node10-&gt;node11</title>
<path fill="none" stroke="black" d="M983.65,-73.46C957.15,-63.21 922.2,-49.7 893.75,-38.69"/>
<polygon fill="black" stroke="black" points="895.19,-35.5 884.6,-35.16 892.67,-42.03 895.19,-35.5"/>
</g>
<!-- node12 -->
<g id="node13" class="node">
<title>node12</title>
<ellipse fill="none" stroke="black" cx="1030.82" cy="-18" rx="77.55" ry="18"/>
<text text-anchor="middle" x="1030.82" y="-13.8" font-family="Times,serif" font-size="14.00">Chet (Power: 95)</text>
</g>
<!-- node10&#45;&gt;node12 -->
<g id="edge9" class="edge">
<title>node10-&gt;node12</title>
<path fill="none" stroke="black" d="M1025.55,-71.7C1026.28,-64.41 1027.15,-55.73 1027.97,-47.54"/>
<polygon fill="black" stroke="black" points="1031.45,-47.91 1028.96,-37.61 1024.48,-47.21 1031.45,-47.91"/>
</g>
<!-- node14 -->
<g id="node15" class="node">
<title>node14</title>
<ellipse fill="none" stroke="black" cx="1242.82" cy="-18" rx="116.69" ry="18"/>
<text text-anchor="middle" x="1242.82" y="-13.8" font-family="Times,serif" font-size="14.00">TerryAndTerri (Power: 85)</text>
</g>
<!-- node13&#45;&gt;node14 -->
<g id="edge11" class="edge">
<title>node13-&gt;node14</title>
<path fill="none" stroke="black" d="M1248.84,-71.7C1248.01,-64.41 1247.02,-55.73 1246.08,-47.54"/>
<polygon fill="black" stroke="black" points="1249.56,-47.15 1244.95,-37.61 1242.61,-47.94 1249.56,-47.15"/>
</g>
<!-- node15 -->
<g id="node16" class="node">
<title>node15</title>
<ellipse fill="none" stroke="black" cx="1467.82" cy="-18" rx="90.44" ry="18"/>
<text text-anchor="middle" x="1467.82" y="-13.8" font-family="Times,serif" font-size="14.00">Squishy (Power: 75)</text>
</g>
<!-- node13&#45;&gt;node15 -->
<g id="edge12" class="edge">
<title>node13-&gt;node15</title>
<path fill="none" stroke="black" d="M1299.79,-73.2C1332.73,-62.58 1376.26,-48.53 1410.77,-37.4"/>
<polygon fill="black" stroke="black" points="1411.74,-40.77 1420.19,-34.37 1409.6,-34.1 1411.74,-40.77"/>
</g>
<!-- node17 -->
<g id="node18" class="node">
<title>node17</title>
<ellipse fill="none" stroke="black" cx="1909.82" cy="-162" rx="84.52" ry="18"/>
<text text-anchor="middle" x="1909.82" y="-157.8" font-family="Times,serif" font-size="14.00">Mike (Power: 115)</text>
</g>
<!-- node16&#45;&gt;node17 -->
<g id="edge22" class="edge">
<title>node16-&gt;node17</title>
<path fill="none" stroke="black" d="M1909.82,-215.7C1909.82,-208.41 1909.82,-199.73 1909.82,-191.54"/>
<polygon fill="black" stroke="black" points="1913.32,-191.62 1909.82,-181.62 1906.32,-191.62 1913.32,-191.62"/>
</g>
<!-- node24 -->
<g id="node25" class="node">
<title>node24</title>
<ellipse fill="none" stroke="black" cx="2191.82" cy="-162" rx="92.04" ry="18"/>
<text text-anchor="middle" x="2191.82" y="-157.8" font-family="Times,serif" font-size="14.00">Johnny (Power: 110)</text>
</g>
<!-- node16&#45;&gt;node24 -->
<g id="edge27" class="edge">
<title>node16-&gt;node24</title>
<path fill="none" stroke="black" d="M1963.53,-219.67C2009.58,-208.24 2076.12,-191.72 2125.5,-179.46"/>
<polygon fill="black" stroke="black" points="2126.06,-182.93 2134.92,-177.12 2124.37,-176.14 2126.06,-182.93"/>
</g>
<!-- node18 -->
<g id="node19" class="node">
<title>node18</title>
<ellipse fill="none" stroke="black" cx="1823.82" cy="-90" rx="84.52" ry="18"/>
<text text-anchor="middle" x="1823.82" y="-85.8" font-family="Times,serif" font-size="14.00">Mike (Power: 115)</text>
</g>
<!-- node17&#45;&gt;node18 -->
<g id="edge18" class="edge">
<title>node17-&gt;node18</title>
<path fill="none" stroke="black" d="M1889.44,-144.41C1878.59,-135.58 1865.07,-124.57 1853.11,-114.84"/>
<polygon fill="black" stroke="black" points="1855.49,-112.27 1845.53,-108.67 1851.07,-117.7 1855.49,-112.27"/>
</g>
<!-- node21 -->
<g id="node22" class="node">
<title>node21</title>
<ellipse fill="none" stroke="black" cx="2003.82" cy="-90" rx="77.55" ry="18"/>
<text text-anchor="middle" x="2003.82" y="-85.8" font-family="Times,serif" font-size="14.00">Chet (Power: 95)</text>
</g>
<!-- node17&#45;&gt;node21 -->
<g id="edge21" class="edge">
<title>node17-&gt;node21</title>
<path fill="none" stroke="black" d="M1932.1,-144.41C1944.07,-135.5 1959.03,-124.36 1972.19,-114.56"/>
<polygon fill="black" stroke="black" points="1974.23,-117.4 1980.16,-108.62 1970.05,-111.78 1974.23,-117.4"/>
</g>
<!-- node19 -->
<g id="node20" class="node">
<title>node19</title>
<ellipse fill="none" stroke="black" cx="1660.82" cy="-18" rx="84.52" ry="18"/>
<text text-anchor="middle" x="1660.82" y="-13.8" font-family="Times,serif" font-size="14.00">Mike (Power: 115)</text>
</g>
<!-- node18&#45;&gt;node19 -->
<g id="edge16" class="edge">
<title>node18-&gt;node19</title>
<path fill="none" stroke="black" d="M1787.65,-73.46C1764.09,-63.35 1733.13,-50.05 1707.7,-39.13"/>
<polygon fill="black" stroke="black" points="1709.14,-35.94 1698.57,-35.21 1706.37,-42.37 1709.14,-35.94"/>
</g>
<!-- node20 -->
<g id="node21" class="node">
<title>node20</title>
<ellipse fill="none" stroke="black" cx="1835.82" cy="-18" rx="72.18" ry="18"/>
<text text-anchor="middle" x="1835.82" y="-13.8" font-family="Times,serif" font-size="14.00">Art (Power: 80)</text>
</g>
<!-- node18&#45;&gt;node20 -->
<g id="edge17" class="edge">
<title>node18-&gt;node20</title>
<path fill="none" stroke="black" d="M1826.79,-71.7C1828.05,-64.32 1829.56,-55.52 1830.98,-47.25"/>
<polygon fill="black" stroke="black" points="1834.39,-48.04 1832.63,-37.6 1827.49,-46.86 1834.39,-48.04"/>
</g>
<!-- node22 -->
<g id="node23" class="node">
<title>node22</title>
<ellipse fill="none" stroke="black" cx="2003.82" cy="-18" rx="77.55" ry="18"/>
<text text-anchor="middle" x="2003.82" y="-13.8" font-family="Times,serif" font-size="14.00">Chet (Power: 95)</text>
</g>
<!-- node21&#45;&gt;node22 -->
<g id="edge19" class="edge">
<title>node21-&gt;node22</title>
<path fill="none" stroke="black" d="M2003.82,-71.7C2003.82,-64.41 2003.82,-55.73 2003.82,-47.54"/>
<polygon fill="black" stroke="black" points="2007.32,-47.62 2003.82,-37.62 2000.32,-47.62 2007.32,-47.62"/>
</g>
<!-- node23 -->
<g id="node24" class="node">
<title>node23</title>
<ellipse fill="none" stroke="black" cx="2189.82" cy="-18" rx="90.44" ry="18"/>
<text text-anchor="middle" x="2189.82" y="-13.8" font-family="Times,serif" font-size="14.00">Squishy (Power: 75)</text>
</g>
<!-- node21&#45;&gt;node23 -->
<g id="edge20" class="edge">
<title>node21-&gt;node23</title>
<path fill="none" stroke="black" d="M2043.27,-74.15C2070.9,-63.75 2108.11,-49.75 2138.12,-38.46"/>
<polygon fill="black" stroke="black" points="2139.28,-41.76 2147.41,-34.96 2136.81,-35.21 2139.28,-41.76"/>
</g>
<!-- node25 -->
<g id="node26" class="node">
<title>node25</title>
<ellipse fill="none" stroke="black" cx="2191.82" cy="-90" rx="92.04" ry="18"/>
<text text-anchor="middle" x="2191.82" y="-85.8" font-family="Times,serif" font-size="14.00">Johnny (Power: 110)</text>
</g>
<!-- node24&#45;&gt;node25 -->
<g id="edge23" class="edge">
<title>node24-&gt;node25</title>
<path fill="none" stroke="black" d="M2191.82,-143.7C2191.82,-136.41 2191.82,-127.73 2191.82,-119.54"/>
<polygon fill="black" stroke="black" points="2195.32,-119.62 2191.82,-109.62 2188.32,-119.62 2195.32,-119.62"/>
</g>
<!-- node26 -->
<g id="node27" class="node">
<title>node26</title>
<ellipse fill="none" stroke="black" cx="2395.82" cy="-90" rx="94.18" ry="18"/>
<text text-anchor="middle" x="2395.82" y="-85.8" font-family="Times,serif" font-size="14.00">Randall (Power: 100)</text>
</g>
<!-- node24&#45;&gt;node26 -->
<g id="edge26" class="edge">
<title>node24-&gt;node26</title>
<path fill="none" stroke="black" d="M2236.09,-145.81C2266.72,-135.3 2307.72,-121.23 2340.51,-109.98"/>
<polygon fill="black" stroke="black" points="2341.54,-113.33 2349.86,-106.77 2339.26,-106.71 2341.54,-113.33"/>
</g>
<!-- node27 -->
<g id="node28" class="node">
<title>node27</title>
<ellipse fill="none" stroke="black" cx="2394.82" cy="-18" rx="94.18" ry="18"/>
<text text-anchor="middle" x="2394.82" y="-13.8" font-family="Times,serif" font-size="14.00">Randall (Power: 100)</text>
</g>
<!-- node26&#45;&gt;node27 -->
<g id="edge24" class="edge">
<title>node26-&gt;node27</title>
<path fill="none" stroke="black" d="M2395.57,-71.7C2395.47,-64.41 2395.34,-55.73 2395.23,-47.54"/>
<polygon fill="black" stroke="black" points="2398.73,-47.57 2395.09,-37.62 2391.73,-47.67 2398.73,-47.57"/>
</g>
<!-- node28 -->
<g id="node29" class="node">
<title>node28</title>
<ellipse fill="none" stroke="black" cx="2623.82" cy="-18" rx="116.69" ry="18"/>
<text text-anchor="middle" x="2623.82" y="-13.8" font-family="Times,serif" font-size="14.00">TerryAndTerri (Power: 85)</text>
</g>
<!-- node26&#45;&gt;node28 -->
<g id="edge25" class="edge">
<title>node26-&gt;node28</title>
<path fill="none" stroke="black" d="M2444.17,-74.15C2478.68,-63.56 2525.35,-49.23 2562.47,-37.83"/>
<polygon fill="black" stroke="black" points="2563.19,-41.28 2571.72,-35 2561.13,-34.58 2563.19,-41.28"/>
</g>
</g>
</svg>